<!DOCTYPE svg PUBLIC "-//W3C//DTD SVG 1.1//EN" "http://www.w3.org/Graphics/SVG/1.1/DTD/svg11.dtd">
<svg xmlns="http://www.w3.org/2000/svg" xmlns:xlink="http://www.w3.org/1999/xlink" version="1.1" width="307px" height="61px" viewBox="-0.5 -0.5 307 61"><defs/><g><path d="M 217 30 L 290.63 30" fill="none" stroke="#000000" stroke-miterlimit="10" pointer-events="stroke"/><path d="M 295.88 30 L 288.88 33.5 L 290.63 30 L 288.88 26.5 Z" fill="#000000" stroke="#000000" stroke-miterlimit="10" pointer-events="all"/><rect x="97" y="0" width="120" height="60" rx="9" ry="9" fill="#ffffff" stroke="#000000" pointer-events="all"/><rect x="137" y="10" width="40" height="40" fill="none" stroke="none" pointer-events="all"/><path d="M 157 10 C 145.96 10 137 18.96 137 30 C 137 41.04 145.96 50 157 50 C 168.04 50 177 41.04 177 30 C 177 18.96 168.04 10 157 10 Z M 157 11.54 C 167.21 11.54 175.46 19.8 175.46 30 C 175.46 40.21 167.21 48.46 157 48.46 C 146.79 48.46 138.54 40.21 138.54 30 C 138.54 19.8 146.79 11.54 157 11.54 Z M 148.96 14.81 C 148.54 14.81 148.2 15.15 148.2 15.58 L 148.2 21.21 C 148.2 21.64 148.54 21.98 148.96 21.98 L 152.69 21.98 L 161.78 41.62 C 161.91 41.89 162.18 42.06 162.48 42.06 L 168.97 42.06 C 169.4 42.06 169.74 41.72 169.74 41.29 L 169.74 35.64 C 169.74 35.44 169.66 35.24 169.52 35.1 C 169.37 34.95 169.18 34.87 168.97 34.87 L 166.92 34.87 L 157.72 15.25 C 157.59 14.98 157.32 14.81 157.02 14.81 Z M 149.73 16.35 L 156.53 16.35 L 165.74 35.97 C 165.87 36.24 166.14 36.41 166.44 36.41 L 168.21 36.41 L 168.21 40.52 L 162.97 40.52 L 153.88 20.89 C 153.75 20.62 153.48 20.44 153.18 20.44 L 149.73 20.44 Z M 151.71 25.33 C 151.4 25.32 151.13 25.49 151 25.77 L 143.75 40.96 C 143.63 41.2 143.65 41.48 143.79 41.7 C 143.93 41.93 144.18 42.06 144.44 42.06 L 151.35 42.06 C 151.65 42.06 151.92 41.89 152.05 41.62 L 155.85 33.54 C 155.94 33.33 155.94 33.09 155.84 32.88 L 152.38 25.76 C 152.26 25.5 152 25.33 151.71 25.33 Z M 151.7 27.87 L 154.3 33.22 L 150.87 40.52 L 145.66 40.52 Z" fill="#277116" stroke="none" pointer-events="all"/><path d="M 7 20 L 90.63 19.98" fill="none" stroke="#000000" stroke-miterlimit="10" pointer-events="stroke"/><path d="M 95.88 19.98 L 88.88 23.48 L 90.63 19.98 L 88.88 16.48 Z" fill="#000000" stroke="#000000" stroke-miterlimit="10" pointer-events="all"/><path d="M 7 45 L 90.63 45" fill="none" stroke="#000000" stroke-miterlimit="10" pointer-events="stroke"/><path d="M 95.88 45 L 88.88 48.5 L 90.63 45 L 88.88 41.5 Z" fill="#000000" stroke="#000000" stroke-miterlimit="10" pointer-events="all"/></g></svg>