<?xml version="1.0" encoding="UTF-8"?>
<!DOCTYPE svg PUBLIC "-//W3C//DTD SVG 1.1//EN" "http://www.w3.org/Graphics/SVG/1.1/DTD/svg11.dtd">
<svg xmlns="http://www.w3.org/2000/svg" xmlns:xlink="http://www.w3.org/1999/xlink" version="1.1" width="220px" height="220px" viewBox="-0.5 -0.5 220 220"><defs/><g><rect x="0" y="0" width="218" height="218" fill="none" stroke="none" pointer-events="all"/><path d="M 9.92 109 C 9.92 54.36 54.36 9.92 109 9.92 C 163.64 9.92 208.08 54.36 208.08 109 C 208.08 163.64 163.64 208.08 109 208.08 C 54.36 208.08 9.92 163.64 9.92 109 Z M 0 109 C 0 169.1 48.9 218 109 218 C 169.1 218 218 169.1 218 109 C 218 48.9 169.1 0 109 0 C 48.9 0 0 48.9 0 109 Z M 75.47 164.73 L 48.95 164.73 L 80.37 98.9 L 93.65 126.3 Z M 84.8 85.29 C 83.97 83.59 82.24 82.5 80.34 82.5 L 80.32 82.5 C 78.41 82.51 76.68 83.6 75.86 85.32 L 36.61 167.55 C 35.88 169.09 35.98 170.9 36.89 172.33 C 37.8 173.78 39.38 174.65 41.09 174.65 L 78.61 174.65 C 80.53 174.65 82.27 173.54 83.09 171.81 L 103.63 128.4 C 104.27 127.04 104.27 125.47 103.61 124.11 Z M 169.07 164.73 L 142.07 164.73 L 92.96 59.22 C 92.15 57.47 90.39 56.35 88.47 56.35 L 70.62 56.35 L 70.64 35.93 L 106.4 35.93 L 155.27 141.43 C 156.08 143.18 157.84 144.31 159.76 144.31 L 169.07 144.31 Z M 162.93 134.39 L 114.06 28.89 C 113.24 27.14 111.49 26.01 109.56 26.01 L 65.68 26.01 C 62.95 26.01 60.73 28.23 60.72 30.96 L 60.69 61.31 C 60.69 62.63 61.22 63.89 62.15 64.82 C 63.08 65.75 64.33 66.27 65.65 66.27 L 85.31 66.27 L 134.41 171.78 C 135.22 173.53 136.98 174.65 138.9 174.65 L 174.03 174.65 C 176.77 174.65 178.99 172.43 178.99 169.69 L 178.99 139.35 C 178.99 136.6 176.77 134.39 174.03 134.39 Z" fill="#277116" stroke="none" pointer-events="all"/></g></svg>