<!DOCTYPE svg PUBLIC "-//W3C//DTD SVG 1.1//EN" "http://www.w3.org/Graphics/SVG/1.1/DTD/svg11.dtd">
<svg xmlns="http://www.w3.org/2000/svg" xmlns:xlink="http://www.w3.org/1999/xlink" version="1.1" width="220px" height="219px" viewBox="-0.5 -0.5 220 219"><defs/><g><rect x="0" y="0" width="218" height="218" fill="none" stroke="none" pointer-events="all"/><path d="M 109 0 C 48.85 0 0 48.85 0 109 C 0 169.15 48.85 218 109 218 C 169.15 218 218 169.15 218 109 C 218 48.85 169.15 0 109 0 Z M 109 8.38 C 164.62 8.38 209.62 53.38 209.62 109 C 209.62 164.63 164.62 209.62 109 209.62 C 53.37 209.62 8.38 164.63 8.38 109 C 8.38 53.38 53.37 8.38 109 8.38 Z M 65.2 26.21 C 62.89 26.21 61.02 28.09 61.02 30.4 L 61.02 61.11 C 61.02 63.42 62.89 65.3 65.2 65.3 L 85.51 65.3 L 135.05 172.31 C 135.73 173.79 137.22 174.74 138.85 174.74 L 174.26 174.74 C 176.57 174.74 178.45 172.86 178.45 170.55 L 178.45 139.75 C 178.45 137.43 176.57 135.56 174.26 135.56 L 163.09 135.56 L 112.91 28.61 C 112.22 27.15 110.74 26.21 109.12 26.21 Z M 69.39 34.59 L 106.46 34.59 L 156.64 141.52 C 157.33 142.99 158.8 143.93 160.43 143.93 L 170.07 143.93 L 170.07 166.36 L 141.53 166.36 L 91.99 59.35 C 91.31 57.86 89.82 56.92 88.19 56.92 L 69.39 56.92 Z M 80.15 83.54 C 78.51 83.51 77 84.44 76.29 85.92 L 36.76 168.75 C 36.15 170.04 36.24 171.57 37 172.78 C 37.77 174 39.11 174.73 40.54 174.74 L 78.22 174.74 C 79.85 174.74 81.33 173.8 82.02 172.33 L 102.71 128.3 C 103.24 127.16 103.23 125.83 102.68 124.69 L 83.84 85.9 C 83.15 84.48 81.73 83.57 80.15 83.54 Z M 80.1 97.39 L 94.27 126.55 L 75.57 166.36 L 47.19 166.36 Z" fill="#277116" stroke="none" pointer-events="all"/></g></svg>